<?xml version="1.0" encoding="UTF-8" standalone="no"?>
<!-- Created by Flowgorithm 2.22.1 (http://flowgorithm.org) -->

<svg xmlns:svg="http://www.w3.org/2000/svg" xmlns="http://www.w3.org/2000/svg" version="1.1" width="2635" height="3317">
	<rect x="0" y="0" width="2635" height="3317" fill="#FFFFFF"/>
	<g>
		<polyline fill="none" stroke="#404040" stroke-width="8" stroke-dasharray="none" points="403,248 403,323"/>
		<polygon fill="#404040" stroke="none" points="403,341 420,310 385,310"/>
		<polyline fill="none" stroke="#404040" stroke-width="8" stroke-dasharray="none" points="403,2976 403,3051"/>
		<polygon fill="#404040" stroke="none" points="403,3069 420,3038 385,3038"/>
		<g>
			<path fill="#F0D0FF" stroke="#9070A0" stroke-width="4" stroke-dasharray="none" d="M 279,124 A 62,62 0 0,0 279,248 L 527,248 A 62,62 0 0,0 527,124 Z"/>
			<text x="403" y="142" fill="#000000" font-family="Arial" font-size="32pt" text-anchor="middle" direction="ltr">
				<tspan x="403" dy="62" unicode-bidi="embed">Start</tspan>
			</text>
		</g>
		<g>
			<path fill="#F0D0FF" stroke="#9070A0" stroke-width="4" stroke-dasharray="none" d="M 279,3069 A 62,62 0 0,0 279,3193 L 527,3193 A 62,62 0 0,0 527,3069 Z"/>
			<text x="403" y="3087" fill="#000000" font-family="Arial" font-size="32pt" text-anchor="middle" direction="ltr">
				<tspan x="403" dy="62" unicode-bidi="embed">End</tspan>
			</text>
		</g>
		<g>
			<polyline fill="none" stroke="#404040" stroke-width="8" stroke-dasharray="none" points="403,465 403,540"/>
			<polygon fill="#404040" stroke="none" points="403,558 420,527 385,527"/>
			<polyline fill="none" stroke="#404040" stroke-width="8" stroke-dasharray="none" points="403,682 403,788"/>
			<polygon fill="#404040" stroke="none" points="403,806 420,775 385,775"/>
			<polyline fill="none" stroke="#404040" stroke-width="8" stroke-dasharray="none" points="403,930 403,2834"/>
			<polygon fill="#404040" stroke="none" points="403,2852 420,2821 385,2821"/>
			<g>
				<path fill="#D0E0FF" stroke="#7080A0" stroke-width="4" stroke-dasharray="none" d="M 217,341 L 155,465 L 589,465 L 651,341 Z"/>
				<text x="403" y="359" fill="#000000" font-family="Arial" font-size="32pt" text-anchor="middle" direction="ltr">
					<tspan x="403" dy="62" unicode-bidi="embed">Input Array</tspan>
				</text>
			</g>
			<g>
				<path fill="#FFFFD0" stroke="#A0A070" stroke-width="4" stroke-dasharray="none" d="M 124,558 L 124,682 L 682,682 L 682,558 Z"/>
				<text x="403" y="576" fill="#000000" font-family="Arial" font-size="32pt" text-anchor="middle" direction="ltr">
					<tspan x="403" dy="62" unicode-bidi="embed">n = &quot;length of Array&quot;</tspan>
				</text>
			</g>
			<g>
				<polyline fill="none" stroke="#404040" stroke-width="8" stroke-dasharray="none" points="651,868 992,868 992,1005"/>
				<polygon fill="#404040" stroke="none" points="992,1023 1009,992 974,992"/>
				<polyline fill="none" stroke="#404040" stroke-width="8" stroke-dasharray="none" points="992,2666 992,2759 465,2759 465,947"/>
				<polygon fill="#404040" stroke="none" points="465,930 447,960 482,960"/>
				<g>
					<polyline fill="none" stroke="#404040" stroke-width="8" stroke-dasharray="none" points="992,1147 992,1253"/>
					<polygon fill="#404040" stroke="none" points="992,1271 1009,1240 974,1240"/>
					<polyline fill="none" stroke="#404040" stroke-width="8" stroke-dasharray="none" points="992,1395 992,2462"/>
					<polygon fill="#404040" stroke="none" points="992,2480 1009,2449 974,2449"/>
					<g>
						<path fill="#FFFFD0" stroke="#A0A070" stroke-width="4" stroke-dasharray="none" d="M 806,1023 L 806,1147 L 1178,1147 L 1178,1023 Z"/>
						<text x="992" y="1041" fill="#000000" font-family="Arial" font-size="32pt" text-anchor="middle" direction="ltr">
							<tspan x="992" dy="62" unicode-bidi="embed">indexMin = i</tspan>
						</text>
					</g>
					<g>
						<polyline fill="none" stroke="#404040" stroke-width="8" stroke-dasharray="none" points="1271,1333 1767,1333 1767,1470"/>
						<polygon fill="#404040" stroke="none" points="1767,1488 1784,1457 1749,1457"/>
						<polyline fill="none" stroke="#404040" stroke-width="8" stroke-dasharray="none" points="1767,2294 1767,2387 1054,2387 1054,1412"/>
						<polygon fill="#404040" stroke="none" points="1054,1395 1036,1425 1071,1425"/>
						<g>
							<polyline fill="none" stroke="#404040" stroke-width="8" stroke-dasharray="none" points="2139,1705 2325,1705 2325,1997"/>
							<polygon fill="#404040" stroke="none" points="2325,2015 2342,1984 2307,1984"/>
							<polyline fill="none" stroke="#404040" stroke-width="8" stroke-dasharray="none" points="2325,2139 2325,2263 1815,2263"/>
							<polygon fill="#404040" stroke="none" points="1798,2263 1828,2280 1828,2245"/>
							<polyline fill="none" stroke="#404040" stroke-width="8" stroke-dasharray="none" points="1395,1705 1178,1705 1178,2263 1718,2263"/>
							<polygon fill="#404040" stroke="none" points="1736,2263 1705,2245 1705,2280"/>
							<g>
								<path fill="#FFD0D0" stroke="#A07070" stroke-width="4" stroke-dasharray="none" d="M 1767,1488 L 1364,1705 L 1767,1922 L 2170,1705 Z"/>
								<text x="1767" y="1661" fill="#000000" font-family="Arial" font-size="32pt" text-anchor="middle" direction="ltr">
									<tspan x="1767" dy="62" unicode-bidi="embed">Array[k] &lt; Array[indexMin]</tspan>
								</text>
							</g>
							<g>
								<path fill="#FFFFD0" stroke="#A0A070" stroke-width="4" stroke-dasharray="none" d="M 2139,2015 L 2139,2139 L 2511,2139 L 2511,2015 Z"/>
								<text x="2325" y="2033" fill="#000000" font-family="Arial" font-size="32pt" text-anchor="middle" direction="ltr">
									<tspan x="2325" dy="62" unicode-bidi="embed">indexMin = k</tspan>
								</text>
							</g>
							<g>
							</g>
							<ellipse cx="1767" cy="2263" rx="31" ry="31" fill="#FFD0D0" stroke="#A07070" stroke-width="4"/>
							<text x="2263" y="1599" fill="#000000" font-family="Arial" font-size="32pt" text-anchor="middle" direction="ltr">
								<tspan x="2263" dy="62" unicode-bidi="embed">True</tspan>
							</text>
							<text x="1255" y="1599" fill="#000000" font-family="Arial" font-size="32pt" text-anchor="middle" direction="ltr">
								<tspan x="1255" dy="62" unicode-bidi="embed">False</tspan>
							</text>
						</g>
						<g>
							<path fill="#FFE0A0" stroke="#A08040" stroke-width="4" stroke-dasharray="none" d="M 775,1271 L 713,1333 L 775,1395 L 1209,1395 L 1271,1333 L 1209,1271 Z"/>
							<text x="992" y="1289" fill="#000000" font-family="Arial" font-size="32pt" text-anchor="middle" direction="ltr">
								<tspan x="992" dy="62" unicode-bidi="embed">k = i+1 to n-1</tspan>
							</text>
						</g>
						<text x="1364" y="1227" fill="#000000" font-family="Arial" font-size="32pt" text-anchor="middle" direction="ltr">
							<tspan x="1364" dy="62" unicode-bidi="embed">Next</tspan>
						</text>
						<text x="883" y="1413" fill="#000000" font-family="Arial" font-size="32pt" text-anchor="middle" direction="ltr">
							<tspan x="883" dy="62" unicode-bidi="embed">Done</tspan>
						</text>
					</g>
					<g>
						<path fill="#F0D0FF" stroke="#9070A0" stroke-width="4" stroke-dasharray="none" d="M 589,2480 L 589,2666 L 1395,2666 L 1395,2480 Z"/>
						<polyline fill="none" stroke="#9070A0" stroke-width="4" stroke-dasharray="none" points="620,2480 620,2666"/>
						<polyline fill="none" stroke="#9070A0" stroke-width="4" stroke-dasharray="none" points="1364,2480 1364,2666"/>
						<text x="992" y="2498" fill="#000000" font-family="Arial" font-size="32pt" text-anchor="middle" direction="ltr">
							<tspan x="992" dy="62" unicode-bidi="embed">swap(Array[indexMin],Array</tspan>
							<tspan x="992" dy="62" unicode-bidi="embed">[i])</tspan>
						</text>
					</g>
				</g>
				<g>
					<path fill="#FFE0A0" stroke="#A08040" stroke-width="4" stroke-dasharray="none" d="M 217,806 L 155,868 L 217,930 L 589,930 L 651,868 L 589,806 Z"/>
					<text x="403" y="824" fill="#000000" font-family="Arial" font-size="32pt" text-anchor="middle" direction="ltr">
						<tspan x="403" dy="62" unicode-bidi="embed">i = 0 to n-2</tspan>
					</text>
				</g>
				<text x="744" y="762" fill="#000000" font-family="Arial" font-size="32pt" text-anchor="middle" direction="ltr">
					<tspan x="744" dy="62" unicode-bidi="embed">Next</tspan>
				</text>
				<text x="294" y="948" fill="#000000" font-family="Arial" font-size="32pt" text-anchor="middle" direction="ltr">
					<tspan x="294" dy="62" unicode-bidi="embed">Done</tspan>
				</text>
			</g>
			<g>
				<path fill="#D0FFD0" stroke="#70A070" stroke-width="4" stroke-dasharray="none" d="M 217,2852 L 155,2976 L 589,2976 L 651,2852 Z"/>
				<text x="403" y="2870" fill="#000000" font-family="Arial" font-size="32pt" text-anchor="middle" direction="ltr">
					<tspan x="403" dy="62" unicode-bidi="embed">Output Array</tspan>
				</text>
			</g>
		</g>
	</g>
</svg>
